<svg width="87" height="32" viewBox="0 0 87 32" xmlns="http://www.w3.org/2000/svg" fill="currentColor">
<path d="M24.3145 32L32.4933 0H42.7183L50.8971 32H44.8523L43.2362 25.2618C43.1948 25.0833 43.0394 24.9581 42.8607 24.9581H32.3535C32.1748 24.9581 32.0194 25.0833 31.978 25.2618L30.3619 32H24.3145ZM33.4257 19.3811H41.7833L38.0046 3.79259H37.2044L33.4257 19.3811Z" />
<path d="M52.8524 32L48.7559 0H54.587L57.6127 27.7946H58.4139L62.3289 0H72.4743L76.3893 27.7946H77.1905L80.2188 0H86.0472L81.9533 32H71.8079L67.8022 3.56621H67.001L62.9952 32H52.8498H52.8524Z" />
<path d="M21.8487 13.4046C22.7361 12.2167 23.1811 10.6613 23.1811 8.74107V8.54931C23.1811 6.81282 22.7827 5.30271 21.9832 4.0243C21.1838 2.74324 20.0584 1.75514 18.6096 1.05202C17.1582 0.351561 15.4558 0 13.5025 0H0V32H5.86254V19.9324H17.3186V32H23.1811V21.1735C23.1811 19.8925 22.8551 18.8644 22.2031 18.0867C21.5512 17.309 19.7479 16.8909 18.5656 16.8296C18.5656 16.8296 18.563 16.8296 18.563 16.827V16.0067C19.8643 15.458 20.9613 14.5898 21.8487 13.4019V13.4046ZM17.3186 10.1979C17.3186 11.479 16.9253 12.507 16.1414 13.2847C15.3575 14.0624 14.2683 14.4513 12.879 14.4513H5.86254V5.48914H12.879C14.2993 5.48914 15.3937 5.87799 16.1647 6.65568C16.9331 7.43338 17.3186 8.46142 17.3186 9.74249V10.2006V10.1979Z" />
</svg>
