<svg viewBox="0 0 86 32" fill="currentColor" xmlns="http://www.w3.org/2000/svg">
<path d="M24.3015 32L32.4759 0H42.6952L50.8696 32H44.8282L43.2129 25.2618C43.1716 25.0833 43.0162 24.9581 42.8376 24.9581H32.3362C32.1576 24.9581 32.0023 25.0833 31.9608 25.2618L30.3456 32H24.3041H24.3015ZM33.4078 19.3811H41.7608L37.9842 3.79259H37.1843L33.4078 19.3811Z"/>
<path d="M52.8235 32L48.7292 0H54.5572L57.5812 27.7946H58.382L62.2948 0H72.4346L76.3475 27.7946H77.1483L80.1749 0H86.0001L81.9085 32H71.7686L67.7651 3.56621H66.9643L62.9607 32H52.8209H52.8235Z"/>
<path d="M21.8367 13.4046C22.7236 12.2167 23.1684 10.6613 23.1684 8.74107V8.54931C23.1684 6.81282 22.7702 5.30271 21.9712 4.0243C21.1722 2.74324 20.0474 1.75514 18.5994 1.05202C17.1488 0.351561 15.4473 0 13.4951 0H0V32H5.85933V19.9324H17.3091V32H23.1684V21.1735C23.1684 19.8925 22.8426 18.8644 22.1909 18.0867C21.5394 17.309 19.7371 16.8909 18.5554 16.8296C18.5554 16.8296 18.5528 16.8296 18.5528 16.827V16.0067C19.8534 15.458 20.9498 14.5898 21.8367 13.4019V13.4046ZM17.3091 10.1979C17.3091 11.479 16.916 12.507 16.1326 13.2847C15.3491 14.0624 14.2605 14.4513 12.8719 14.4513H5.85933V5.48914H12.8719C14.2915 5.48914 15.3853 5.87799 16.1558 6.65568C16.9238 7.43338 17.3091 8.46142 17.3091 9.74249V10.2006V10.1979Z"/>
</svg>
