<svg xmlns="http://www.w3.org/2000/svg" viewBox="0 0 120 89" fill="currentColor"><path d="M59.8365 59.0311H59.9634C60.0241 58.9088 60.0959 58.7808 60.151 58.6474C61.4919 55.3267 62.8603 52.0172 64.1571 48.6855C65.2441 45.8877 66.2318 43.0565 66.9657 40.1364C67.4733 38.1229 67.054 36.3763 65.6635 34.8523C62.6727 31.5762 57.3258 31.515 54.2744 34.7355C52.9281 36.1539 52.3376 37.8225 52.8067 39.7804C53.077 40.8928 53.3529 41.9997 53.695 43.0899C55.229 47.9568 57.1658 52.668 59.1247 57.368C59.3564 57.9243 59.5937 58.4749 59.831 59.0311M77.9353 46.3938C72.9913 61.0168 66.4029 74.8111 59.9413 88.7444C53.4412 74.8333 46.8197 61.0613 41.8867 46.4105C31.1267 60.5774 20.4219 74.6665 9.67846 88.8111C6.44495 86.3137 3.24455 83.8441 0 81.3411C0.115877 81.1853 0.209682 81.0463 0.314522 80.9072C6.66567 72.5473 13.0113 64.1929 19.3569 55.8384C25.697 47.4896 32.0206 39.1352 38.3828 30.803C42.7309 25.1073 48.4309 21.5976 55.4663 20.4407C63.1859 19.1725 70.2102 20.9023 76.4565 25.7081C78.741 27.4657 80.584 29.6405 82.3221 31.9266C93.0931 46.1102 103.886 60.2826 114.674 74.4551C116.324 76.6243 117.973 78.788 119.618 80.9573C119.701 81.0685 119.778 81.1798 119.894 81.33C116.677 83.8163 113.465 86.297 110.221 88.8111C99.4608 74.672 88.7284 60.5719 77.9353 46.3883"/><path d="M33.8984 5.70749C37.5182 3.79409 41.0883 1.90851 44.7026 -0.00488281C47.3898 5.16239 50.0605 10.2963 52.7587 15.4747C49.1555 17.3825 45.5854 19.2681 41.9546 21.1871C39.2729 16.0309 36.6022 10.897 33.8984 5.70749Z"/><path d="M67.1719 15.458C69.8536 10.3019 72.5188 5.17352 75.217 -0.00488281C78.8202 1.90295 82.3959 3.78853 85.9991 5.69636C85.9384 5.84098 85.8942 5.95222 85.8391 6.0579C83.3008 10.9415 80.7626 15.8251 78.2188 20.7087C77.9705 21.1871 77.9705 21.1926 77.4904 20.9368C74.1465 19.168 70.8082 17.4048 67.4643 15.636C67.3816 15.5915 67.3043 15.5359 67.1719 15.458Z"/></svg>
