<svg xmlns="http://www.w3.org/2000/svg" viewBox="0 0 56 17">
<path d="M18.1157 9.07145V15.9562H15.9676V9.44397C15.9676 7.52971 14.8718 6.33874 13.1207 6.33874C11.9297 6.33874 10.7415 7.15719 10.1568 8.13607C10.2031 8.34545 10.2275 8.57929 10.2493 8.81313V15.9562H8.10391V9.44397C8.10391 7.52971 6.98364 6.33874 5.30322 6.33874C4.0198 6.33874 2.94575 7.06202 2.41009 8.11432V15.9562H0.240234V4.56588H2.41009V6.17559C2.97023 5.35986 4.11497 4.33203 5.98028 4.33203C7.6607 4.33203 8.87342 5.00909 9.59943 6.36049C10.3689 5.33539 11.7448 4.33203 13.4742 4.33203C16.2504 4.33203 18.1184 6.17559 18.1184 9.06873" fill="currentColor"/>
<path d="M23.1753 10.2881C23.1753 12.4579 24.8095 14.1383 26.9549 14.1383C29.1003 14.1383 30.7345 12.4579 30.7345 10.2881C30.7345 8.11823 29.0785 6.38887 26.9549 6.38887C24.8313 6.38887 23.1753 8.06928 23.1753 10.2881ZM32.8391 10.2881C32.8391 13.6244 30.2477 16.194 26.9576 16.194C23.6675 16.194 21.0762 13.6272 21.0762 10.2881C21.0762 6.94901 23.643 4.33594 26.9576 4.33594C30.2722 4.33594 32.8391 6.92725 32.8391 10.2881Z" fill="currentColor"/>
<path d="M38.7751 6.76813V11.8719C38.7751 13.4599 39.7078 14.0662 41.0619 14.0662C41.3175 14.0662 41.622 14.0445 41.8559 13.9738V15.9587C41.5051 16.0512 41.0156 16.1001 40.6187 16.1001C38.215 16.1001 36.627 14.6998 36.627 11.9208V6.77084H34.4082V4.71791H36.627V0.810547H38.7751V4.71791H41.8559V6.77084H38.7751V6.76813Z" fill="currentColor"/>
<path d="M55.7728 9.44722V15.9595H53.6274V9.75176C53.6274 7.74506 52.412 6.46163 50.6147 6.46163C49.285 6.46163 48.0723 7.16045 47.3925 8.25625V15.9595H45.2227V0.808594H47.3925V6.2006C48.1403 5.08032 49.5651 4.33529 51.1041 4.33529C53.9293 4.33529 55.7728 6.34199 55.7728 9.44722Z" fill="currentColor"/>
</svg>
