<svg xmlns="http://www.w3.org/2000/svg" version="1.1" xmlns:xlink="http://www.w3.org/1999/xlink" width="512" height="512"><svg xmlns="http://www.w3.org/2000/svg" version="1.1" xmlns:xlink="http://www.w3.org/1999/xlink" width="512" height="512"><svg width="512" height="512" viewBox="0 0 512 512" fill="none" xmlns="http://www.w3.org/2000/svg">
<path d="M0 256C0 114.615 114.615 0 256 0C397.385 0 512 114.615 512 256C512 397.385 397.385 512 256 512C114.615 512 0 397.385 0 256Z" fill="#C6EAA0"></path>
<path d="M348.734 233.52C356.238 223.46 360 210.288 360 194.026V192.402C360 177.696 356.631 164.907 349.872 154.081C343.113 143.232 333.597 134.864 321.347 128.909C309.075 122.977 294.681 120 278.166 120H164V391H213.569V288.803H310.431V391H360V299.313C360 288.464 357.244 279.758 351.731 273.172C346.219 266.586 330.972 263.045 320.975 262.526C320.975 262.526 320.953 262.526 320.953 262.503V255.556C331.956 250.91 341.231 243.557 348.734 233.497V233.52ZM310.431 206.364C310.431 217.213 307.106 225.919 300.478 232.505C293.85 239.091 284.641 242.384 272.894 242.384H213.569V166.486H272.894C284.903 166.486 294.156 169.779 300.675 176.365C307.172 182.951 310.431 191.658 310.431 202.507V206.386V206.364Z" fill="#1E2021"></path>
</svg></svg><style>@media (prefers-color-scheme: light) { :root { filter: none; } }
@media (prefers-color-scheme: dark) { :root { filter: none; } }
</style></svg>