<!-- badge-mask.svg -->
<svg viewBox="0 0 295 35" xmlns="http://www.w3.org/2000/svg">
  <path
    d="M277.779 0H239.356C235.772 0 232.929 1.19259 232.862 1.25919C230.342 2.27622 228.128 3.86231 226.367 5.86006C224.746 7.70041 222.851 9.30466 220.649 10.4064C217.084 12.1802 213.61 13.058 210.192 13.058C208.645 13.058 207.091 12.8764 205.52 12.5192C201.025 11.4901 197.032 8.97776 193.931 5.59975C192.158 3.66254 187.339 1.13206 187.339 1.13206C185.425 0.405603 183.351 0.00605378 181.18 0.00605378H17.2209C7.7115 0 0 7.63382 0 17.0474C0 26.4611 7.7115 34.0949 17.2209 34.0949H181.18C183.351 34.0949 185.425 33.6953 187.339 32.9689V33.0234C187.369 32.9931 187.4 32.9628 187.43 32.9326C190.078 31.9095 192.402 30.2628 194.225 28.1682C196.047 26.0736 198.09 24.4391 200.53 23.3131C203.82 21.7936 207.03 21.0429 210.198 21.0429C213.61 21.0429 217.084 21.9207 220.649 23.6945C222.857 24.7902 224.753 26.3945 226.373 28.2409C228.134 30.2386 230.354 31.8308 232.874 32.8418C232.935 32.9023 232.996 32.9568 233.057 33.0173V32.9144C235.008 33.6772 237.136 34.0949 239.356 34.0949H277.779C287.289 34.0949 295 26.4611 295 17.0474C295 7.63382 287.289 0 277.779 0Z"
    fill="white"
  />
</svg>
